# xmcd
#
# Track frame offsets:
#	150
#	16560
#	29060
#	40990
#	55820
#	72272
#	88360
#	101990
#	114670
#	132545
#	146847
#	162242
#	180182
#	192187
#	208800
#
# Disc length: 2941
#
# Revision: 3
# Processed by: cddbd v1.5.1PL2 Copyright (c) Steve Scherf et al.
# Submitted via: kTunes Pro (development) 1.0patch43.23
#
DISCID=de0b7b0f
DTITLE=Various Artist - SC8183 Bubba & Mama−Divorce Songs
DYEAR=1990
DGENRE=Country
TTITLE0=Jerry Reed - She Got The Gold Mine
TTITLE1=Mark Chesnutt - Goin' Through The Big D
TTITLE2=Toby Keith - You Ain't Much Fun
TTITLE3=Randy Travis - Is It Still Over
TTITLE4=Sammy Kershaw - Yard Sale
TTITLE5=George Strait - All My Ex's Live In Texas
TTITLE6=Holly Dunn - You Really Had Me Going
TTITLE7=Jerry Lee Lewis - What's Made Milwaukee Famous (Has Made A Loser Out Of Me)
TTITLE8=Reba McEntire - Somebody Should Leave
TTITLE9=Tammy Wynette - D-I-V-O-R-C-E
TTITLE10=Reba McEntire - Little Rock
TTITLE11=T.G. Sheppard - Party Time
TTITLE12=Randy Travis - Too Gone Too Long
TTITLE13=Billy Ray Cyrus - Where'm I Gonna Live
TTITLE14=Eddie Rabbitt - Drinkin' My Baby (Off My Mind)
EXTD=
EXTT0=
EXTT1=
EXTT2=
EXTT3=
EXTT4=
EXTT5=
EXTT6=
EXTT7=
EXTT8=
EXTT9=
EXTT10=
EXTT11=
EXTT12=
EXTT13=
EXTT14=
PLAYORDER=
